<svg xmlns="http://www.w3.org/2000/svg" viewBox="0 0 496 496">
    <path d="M352 232H144c0 76.303-32.5 61.5-40 104l256 1c0-39.333-8-88.333-8-105z"
          fill="#625448"/>
    <path d="M404.239 345.186l-78.358-26.119C312.814 314.711 304 302.483 304 288.709v-20.765c30.752-29.008 56-75.617 56-115.944 0 0-2-66-24-72-6.875-1.875-18.047-3.359-30.159-4.514-38.462-3.667-77.22-3.667-115.683 0C178.047 76.641 166.875 78.125 160 80c-22 6-24 72-24 72 0 40.327 25.248 86.936 56 115.944v20.765c0 13.774-8.814 26.002-21.881 30.358l-78.358 26.119C65.627 353.897 48 378.354 48 405.902v65.872c0 13.255 10.745 24 24 24h352c13.255 0 24-10.745 24-24v-65.872c0-27.548-17.627-52.005-43.761-60.716z"
          fill="#e6b47d"/>
    <path fill="#464b5f" d="M128 448h241v48H128z"/>
    <path d="M323.718 318.249C312.583 314 304 301.707 304 288.709V280H192.288c9.051 28.033 60.964 80.094 111.71 65.293l19.72-27.044z"
          fill="#d2a073"/>
    <path d="M336.607 308.303c-4.956-2.478-10.979-.982-14.2 3.527l-68.447 95.825c-3.876 5.427-5.96 11.93-5.96 18.6 0-6.67-2.084-13.172-5.96-18.6l-68.447-95.825c-3.221-4.509-9.243-6.005-14.2-3.527L40 368l70.962 64.794c5.693 4.555 9.007 11.45 9.007 18.741v4.435c0 8.848 7.182 16.017 16.03 16l96.03-.166c8.825-.017 15.97-7.175 15.97-16 0 8.825 7.145 15.983 15.97 16l94.993.166c8.848.017 16.03-7.152 16.03-16v-4.435c0-7.291 3.314-14.186 9.007-18.741L456 368l-119.393-59.697z"
          fill="#54596a"/>
    <path d="M372.707 432.765l-18.972-7.114c-13.614-5.105-19.598-21.048-12.704-33.85l35.343-65.636c4.205-7.81 13.962-10.708 21.749-6.461l64.491 35.177c4.689 2.557 5.603 8.903 1.826 12.68l-57.87 57.87c-8.873 8.872-22.114 11.74-33.863 7.334z"
          fill="#727887"/>
    <path d="M423.781 333.698l38.833 21.182c4.688 2.558 5.603 8.904 1.826 12.68l-57.87 57.87c-8.874 8.873-22.114 11.741-33.864 7.335l-6.829-2.561 57.904-96.506z"
          fill="#646978"/>
    <circle cx="248" cy="440" r="16" fill="#727887"/>
    <path d="M156.089 240c0 35 4.244 118.333 43.911 176 0 0-8-92.667-8-141l-35.911-35z"
          fill="#625448"/>
    <path d="M336 80c-6.875-1.875-18.047-3.359-30.159-4.514-38.462-3.667-77.22-3.667-115.683 0C178.047 76.641 166.875 78.125 160 80c-22 6-24 72-24 72 0 64.065 63.714 144 112 144s112-79.935 112-144c0 0-2-66-24-72z"
          fill="#f0c891"/>
    <path d="M339.911 216c-17.469 38.018-52.091 64-91.911 64s-74.442-25.982-91.911-64h-17.318c18.879 47.103 60.687 80 109.229 80s90.35-32.897 109.229-80h-17.318z"
          fill="#727887"/>
    <path d="M248 0c-75.111 0-136 42.144-136 104 0 53.988 5.566 95.078 17.02 125.617 2.406 6.426 8.504 10.387 14.984 10.387 2.312 0 4.678-.505 6.941-1.59 7.532-3.61 10.696-12.824 7.802-20.659-7.472-20.226-12.114-47.354-13.895-80.856-.487-9.155 6.834-16.899 16.003-16.899h174.29c9.168 0 16.489 7.744 16.003 16.899-1.781 33.501-6.422 60.63-13.895 80.856-2.894 7.835.27 17.049 7.802 20.659 2.263 1.085 4.629 1.59 6.941 1.59 6.48 0 12.578-3.965 14.984-10.387C378.434 199.078 384 157.988 384 104 384 42.144 323.111 0 248 0z"
          fill="#54596a"/>
    <path d="M144.898 136c.028-8.751 7.095-16 15.957-16h174.29c8.861 0 15.928 7.249 15.957 16h32.11c.487-10.163.789-20.736.789-32H112c0 11.264.301 21.837.789 32h32.109zM200 290.424c0 3.518 2.281 6.577 5.626 7.666C216.908 301.762 231.727 304 248 304s31.092-2.238 42.374-5.91c3.345-1.089 5.626-4.148 5.626-7.666V280c0-8.837-7.163-16-16-16h-64c-8.837 0-16 7.163-16 16v10.424z"
          fill="#464b5f"/>
    <path d="M329.272 216H166.083c-12.482 0-22.881-9.568-23.917-22.007L136 120h221.229l-3.993 73.305C352.543 206.034 342.019 216 329.272 216z"
          fill="#f9e2c2"/>
    <path d="M123.293 432.765l18.972-7.114c13.614-5.105 19.598-21.048 12.704-33.85l-35.343-65.636c-4.205-7.81-13.962-10.708-21.749-6.461L33.386 354.88c-4.689 2.557-5.603 8.903-1.826 12.68l57.87 57.87c8.873 8.873 22.114 11.741 33.863 7.335z"
          fill="#727887"/>
    <path d="M72.219 333.698L33.386 354.88c-4.688 2.558-5.603 8.904-1.826 12.68l57.87 57.87c8.874 8.873 22.114 11.741 33.864 7.335l6.829-2.561-57.904-96.506z"
          fill="#646978"/>
</svg>
