<svg xmlns="http://www.w3.org/2000/svg" viewBox="0 0 496 496">
    <path d="M402.673 298.174l-66.782-20.371-.792.641.572-.641c-14.25-9.175-15.74-32.781-15.757-46.055 10.911-11.881 19.581-26.234 26.023-41.674C362.051 200.755 376 166.902 376 152.069c0-10.916-6.462-17.162-16.708-16.681.454-5.171.708-10.297.708-15.319 0-.024-.003-.044-.003-.068H360v-36.61c0-37.723-26.352-70.32-63.238-78.225-32.143-6.888-65.38-6.888-97.523 0C162.352 13.07 136 45.667 136 83.391V120h.003c0 .024-.003.044-.003.068 0 5.08.259 10.266.723 15.498-10.189-1.195-16.723 5.058-16.723 16.503 0 15.455 13.87 51.597 29.406 36.451 6.5 16.024 15.386 30.93 26.657 43.205-.072 13.271-1.695 36.898-15.953 46.078l.001.001-.001-.001-66.782 20.371C66.399 306.388 48 331.236 48 359.389V472c0 13.255 10.745 24 24 24h352c13.255 0 24-10.745 24-24V359.389c0-28.153-18.398-53.001-45.327-61.215z"
          fill="#e6b47d"/>
    <path d="M336 320l-.329-42.197C317.781 266.285 320 232 320 224H176c16.334 38.334 87 91 160 96z"
          fill="#d2a073"/>
    <path d="M354.43 278.144l-12.223-4.074c-3.086-1.029-6.207 1.232-6.335 4.483C333.377 341.779 294.989 392 248 392s-85.376-50.221-87.871-113.448c-.128-3.25-3.249-5.512-6.335-4.483l-12.223 4.074c-3.331 1.11-5.566 4.277-5.593 7.788C135.317 374.154 120 400 120 400v96h256v-96s-15.317-25.847-15.978-114.069c-.026-3.51-2.262-6.677-5.592-7.787z"
          fill="#5f69be"/>
    <path d="M248 408c56.078 0 101.664-58.084 103.796-130.734l-9.59-3.197c-3.086-1.029-6.207 1.232-6.335 4.482C333.377 341.779 294.99 392 248 392s-85.376-50.221-87.871-113.449c-.128-3.25-3.249-5.511-6.335-4.482l-9.59 3.197C146.336 349.916 191.922 408 248 408z"
          fill="#ff6955"/>
    <path d="M359.292 135.388c.454-5.171.708-10.297.708-15.319 0-.024-.003-.044-.003-.068H360v-36.61c0-37.723-26.352-70.32-63.238-78.225-32.143-6.888-65.38-6.888-97.523 0C162.352 13.07 136 45.667 136 83.391V120h.003c0 .024-.003.044-.003.068 0 5.08.259 10.266.723 15.498-10.189-1.195-16.723 5.058-16.723 16.503 0 15.455 13.87 51.597 29.406 36.451 16.827 41.478 49.561 75.549 98.594 75.549 48.417 0 80.927-33.227 97.937-73.995C362.051 200.755 376 166.902 376 152.069c0-10.916-6.462-17.162-16.708-16.681z"
          fill="#e6b47d"/>
    <path d="M360 83.391c0-37.723-26.352-70.32-63.238-78.225C280.69 1.722 264.345 0 248 0s-32.69 1.722-48.762 5.166C162.352 13.07 136 45.667 136 83.391V120h.003c0 .024-.003.044-.003.068 0 3.398.126 6.849.334 10.322l.389 5.175L152 144l16-72h160l16 72 15.292-8.612.374-4.997c.208-3.474.334-6.924.334-10.322 0-.024-.003-.044-.003-.068H360v-36.61z"
          fill="#735848"/>
</svg>
