<svg xmlns="http://www.w3.org/2000/svg" viewBox="0 0 496 496">
    <path d="M409.892 320.956l-60.893-13.973c-7.964-1.827-16.347.542-22.167 6.278-.036.035-.071.069-.107.104-4.284-6.422-6.725-14.095-6.725-22.196v-27.56c10.86-11.84 19.494-26.128 25.918-41.499C362.042 232.843 376 198.841 376 184c0-10.909-6.446-17.166-16.681-16.694.454-5.169.681-10.286.681-15.306 0-64.065-50.144-88-112-88s-112 23.935-112 88c0 5.063.232 10.225.693 15.439C126.505 166.244 120 172.556 120 184c0 15.462 13.88 51.714 29.424 36.513 6.488 15.977 15.341 30.848 26.576 43.096v27.56c0 8.101-2.44 15.774-6.725 22.196-.015-.014-.029-.028-.044-.043-5.854-5.768-14.297-8.131-22.296-6.248l-61.258 14.413C49.54 329.991 24 362.237 24 399.361V472c0 13.255 10.745 24 24 24h400c13.255 0 24-10.745 24-24v-73.07c0-37.29-25.763-69.634-62.108-77.974z"
          fill="#fad7a5"/>
    <path d="M334.199 321.73C325.384 314.284 320 303.201 320 291.17V272H176c7.54 21.677 58.663 68.96 104.981 88.465 13.775-6.467 32.943-18.142 53.218-38.735z"
          fill="#f0c891"/>
    <path d="M326.832 313.261c-11.879 11.707-23.142 21.695-33.242 30.031-26.472 21.849-64.708 21.849-91.181 0-10.082-8.321-21.323-18.289-33.179-29.969-5.854-5.768-14.297-8.131-22.296-6.248l-61.258 14.413C49.54 329.991 24 362.237 24 399.361V472c0 13.255 10.745 24 24 24h400c13.255 0 24-10.745 24-24v-73.071c0-37.29-25.763-69.634-62.108-77.974l-60.893-13.973c-7.964-1.826-16.347.543-22.167 6.279z"
          fill="#388e3c"/>
    <path d="M420.111 432c-7.897 0-15.617-2.337-22.188-6.718l-27.846-18.564c-6.571-4.38-14.291-6.718-22.188-6.718H148.111c-7.897 0-15.617 2.337-22.188 6.718l-27.846 18.564C91.506 429.663 83.786 432 75.889 432H24v40c0 13.255 10.745 24 24 24h400c13.255 0 24-10.745 24-24v-40h-51.889z"
          fill="#e6ebf0"/>
    <path d="M359.319 167.306c.454-5.169.681-10.286.681-15.306 0-64.065-50.144-88-112-88s-112 23.935-112 88c0 5.063.232 10.225.693 15.439C126.505 166.244 120 172.556 120 184c0 15.462 13.88 51.714 29.424 36.513C166.258 261.964 198.99 296 248 296c48.379 0 80.897-33.165 97.918-73.889C362.042 232.843 376 198.841 376 184c0-10.909-6.446-17.166-16.681-16.694z"
          fill="#ffe1b4"/>
    <path d="M248 304c-81.863 0-120-95.473-120-160h16c0 58.074 33.055 144 104 144s104-85.926 104-144h16c0 64.527-38.137 160-120 160z"
          fill="#4caf50"/>
    <path d="M305.773 9.929c-1.165-.703-2.434-1.04-3.759-1.04h-10.699c-2.122 0-4.156.936-5.657 2.603l-.001.002c-3.124 3.471-8.189 3.471-11.313-.001l-5.657-6.286C265.686 1.873 261.616 0 257.373 0h-18.746c-4.244 0-8.313 1.873-11.314 5.207l-5.657 6.286c-3.124 3.471-8.189 3.471-11.313.001l-.001-.002c-1.5-1.666-3.535-2.603-5.657-2.603h-10.699c-1.326 0-2.594.337-3.759 1.04-8.81 5.315-48.061 30.727-63.165 70.071h241.876c-15.105-39.344-54.355-64.756-63.165-70.071zM120 136l6.037 42.263c1.126 7.882 7.877 13.737 15.839 13.737H152v-56h-32zM376 136l-6.037 42.263c-1.126 7.882-7.877 13.737-15.839 13.737H344v-56h32z"
          fill="#81c784"/>
    <path d="M368.938 80H127.062c-4.035 0-7.438 3.004-7.938 7.008l-6 48c-.597 4.775 3.126 8.992 7.938 8.992h253.875c4.812 0 8.535-4.217 7.938-8.992l-6-48c-.499-4.004-3.903-7.008-7.937-7.008z"
          fill="#388e3c"
    />
    <path d="M329.875 208h-163.75c-8.069 0-14.876-6.009-15.876-14.015L144 144h208l-6.248 49.985c-1.001 8.006-7.807 14.015-15.877 14.015z"
          fill="#fff5e5"/>
    <path d="M248 416.434l116.488-105.896-15.49-3.555c-7.964-1.828-16.347.542-22.167 6.278-11.879 11.707-23.142 21.695-33.242 30.031-26.472 21.849-64.708 21.849-91.181 0-10.082-8.321-21.323-18.289-33.179-29.969-5.854-5.768-14.296-8.13-22.296-6.249l-15.278 3.595L248 416.434z"
          fill="#81c784"/>
    <path d="M207.153 346.867L248 384l40.847-37.133c-24.531 17.061-57.163 17.061-81.694 0z"
          fill="#e6ebf0"/>
</svg>
