<svg xmlns="http://www.w3.org/2000/svg" viewBox="0 0 488 488">
    <path d="M420.1 323.55l-89.671-23.306c-8.824-2.595-15.389-10.006-16.901-19.079L308 248H180l-5.527 33.165c-1.512 9.073-8.077 16.484-16.901 19.079L67.9 323.55C39.692 330.882 20 356.346 20 385.492V464c0 13.255 10.745 24 24 24h400c13.255 0 24-10.745 24-24v-78.508c0-29.146-19.692-54.61-47.9-61.942z"
          fill="#ff6955"/>
    <path d="M258.427 373.148l90.693-68.22-18.691-4.858c-6.337-1.864-11.472-6.235-14.444-11.898h-143.97c-2.972 5.663-8.106 10.034-14.444 11.898l-18.691 4.858 90.693 68.22c8.544 6.427 20.31 6.427 28.854 0zM39.522 339.348C27.374 351.111 20 367.515 20 385.318v78.508c0 13.255 10.745 24 24 24h56v-61.838c0-11.703-4.275-23.003-12.022-31.774l-48.456-54.866zM448.478 339.348C460.626 351.111 468 367.515 468 385.318v78.508c0 13.255-10.745 24-24 24h-56v-61.838c0-11.703 4.275-23.003 12.022-31.774l48.456-54.866z"
          fill="#464b5f"/>
    <path fill="#46697d" d="M380 164.436v32L244 261l-136-64.564v-32z"/>
    <path d="M176.464 233.426L244 255l67.539-21.575c-16.996-17.844-40.932-28.989-67.539-28.989-26.603 0-50.533 11.151-67.536 28.99z"
          fill="#507882"/>
    <path d="M342.167 37.436c-4.5-3.167-13.667-6.667-12.684-25.165L244 12.436l-85.482-.165c.982 18.498-8.184 21.998-12.684 25.165-40.246 28.321-37.833 95-37.833 95h272c-.001 0 2.411-66.679-37.834-95z"
          fill="#46697d"/>
    <path d="M357.232 90.503l-40.614-11.604c-5.718-1.634-11.635-2.462-17.582-2.462H188.964c-5.947 0-11.864.829-17.582 2.462l-40.614 11.604c-4.312 1.232-7.91 4.218-9.915 8.229L108 124.436h272l-12.852-25.705c-2.006-4.011-5.603-6.996-9.916-8.228z"
          fill="#54596a"/>
    <path d="M328.409 110.504c-8.258-1.376-16.616-2.068-24.989-2.068H184.58c-8.372 0-16.73.692-24.989 2.068l-28.906 4.818c-3.858.643-6.685 3.98-6.685 7.891v17.223h240v-17.223c0-3.911-2.827-7.248-6.685-7.891l-28.906-4.818z"
          fill="#464b5f"/>
    <path d="M108 172.436h272c4.418 0 8-3.582 8-8v-32c0-4.418-3.582-8-8-8H108c-4.418 0-8 3.582-8 8v32c0 4.418 3.582 8 8 8z"
          fill="#d2d7dc"/>
    <path d="M313.131 95.769l4.937-16.456-1.449-.414c-5.718-1.634-11.636-2.462-17.582-2.462H188.963c-5.946 0-11.864.829-17.582 2.462l-1.449.414 4.937 16.456c3.045 10.151 12.389 17.104 22.988 17.104h92.286c10.599-.001 19.942-6.953 22.988-17.104z"
          fill="#46697d"/>
    <path d="M165.755 3.549h-.003c-5.039.458-8.392 5.42-6.938 10.266l16.055 53.517c3.045 10.152 12.389 17.104 22.988 17.104h92.287c10.599 0 19.942-6.952 22.988-17.104l16.055-53.517c1.454-4.846-1.9-9.808-6.938-10.266h-.003c-52.057-4.732-104.435-4.732-156.491 0z"
          fill="#507882"/>
    <path d="M244 260.262l-136-63.826v11.336c0 23.035 11.022 44.68 29.652 58.229l37.309 27.134c13.674 9.944 30.146 15.301 47.054 15.301h43.971c16.907 0 33.38-5.357 47.054-15.301l37.309-27.134C368.978 252.452 380 230.807 380 207.772v-11.336l-136 63.826z"
          fill="#d2d7dc"/>
    <path d="M174.961 293.135c13.674 9.944 30.146 15.301 47.054 15.301h43.971c16.907 0 33.38-5.357 47.054-15.301l2.339-1.701c-4.438-35.506-34.669-62.998-71.378-62.998s-66.939 27.492-71.378 62.998l2.338 1.701z"
          fill="#e6ebf0"/>
    <circle cx="244" cy="260.436" r="16" fill="#c3cbd2"/>
    <path d="M140.937 132.436l8 56 64 16 16-40h32l16 40 64-16 8-56z"
          fill="#e6d79b"/>
    <path d="M339.061 140.436l-4.734 42.605-55.477 11.096-8.086-20.215c-4.249-10.622-14.386-17.485-25.827-17.485-11.44 0-21.578 6.863-25.827 17.486l-8.086 20.215-55.477-11.095-4.734-42.605h188.248m8.938-16.002H141.875c-4.768 0-8.478 4.145-7.951 8.883l5.721 51.489c.769 6.925 5.932 12.556 12.764 13.922l58.89 11.778c.777.155 1.555.231 2.323.231 4.751 0 9.144-2.876 10.965-7.429l9.378-23.446c1.794-4.486 6.139-7.428 10.971-7.428s9.177 2.942 10.971 7.428l9.378 23.446c1.821 4.552 6.215 7.429 10.965 7.429.768 0 1.545-.075 2.323-.231l58.89-11.778c6.832-1.366 11.995-6.997 12.764-13.922l5.721-51.489c.529-4.738-3.181-8.883-7.949-8.883z"
          fill="#ff6955"/>
    <path d="M284 440l131.64-117.783-39.214-10.192zM72.36 322.217L204 440l-92.426-127.975zM100 432l96 56-96-.174zM388 432l-96 56 96-.174z"
          fill="#e6ebf0"/>
</svg>
