<svg xmlns="http://www.w3.org/2000/svg" viewBox="0 0 488 488">
    <path d="M326.111 293.143L316 264H172l-10.111 29.143c-3.598 10.371-12.261 18.174-22.951 20.672l-45.501 10.633C64.481 331.214 44 357.033 44 386.769V464c0 13.255 10.745 24 24 24h352c13.255 0 24-10.745 24-24v-77.231c0-29.736-20.481-55.555-49.437-62.321l-45.501-10.633c-10.69-2.498-19.353-10.301-22.951-20.672z"
          fill="#ff5f64"/>
    <path d="M244 360c54.844 0 106.846-12.769 148.509-36.032l-43.447-10.153c-2.223-.52-4.331-1.318-6.351-2.271C312.875 322.25 279.175 328 244 328s-68.875-5.75-98.71-16.457c-2.02.954-4.128 1.752-6.351 2.271l-43.447 10.153C137.154 347.231 189.156 360 244 360z"
          fill="#f04b50"/>
    <path d="M244 344c48.517 0 92.445-9.817 124.281-25.694l-19.22-4.491c-10.689-2.498-19.353-10.301-22.951-20.672L316 264H172l-10.111 29.143c-3.598 10.371-12.261 18.174-22.951 20.672l-19.22 4.491C151.555 334.183 195.483 344 244 344z"
          fill="#464b5f"/>
    <path d="M372 144c0 83.947-64.625 160-128 160s-128-76.053-128-160S168.889 0 244 0s128 60.053 128 144z"
          fill="#54596a"/>
    <path d="M244 304c63.375 0 128-76.053 128-160H116c0 83.947 64.625 160 128 160z"
          fill="#646978"/>
    <path d="M423.746 340.101l-43.856 39.47c-10.114 9.103-15.89 22.071-15.89 35.678V488h56c13.255 0 24-10.745 24-24v-77.231c0-18.183-7.684-34.875-20.254-46.668zM64.254 340.101l43.856 39.47c10.114 9.103 15.89 22.071 15.89 35.678V488H68c-13.255 0-24-10.745-24-24v-77.231c0-18.183 7.684-34.875 20.254-46.668z"
          fill="#f04b50"/>
    <path d="M136.861 144H116c0 20.135 3.797 39.779 10.324 58.065l27.43 5.486L136.861 144zM351.139 144H372c0 20.135-3.797 39.779-10.324 58.065l-27.43 5.486L351.139 144z"
          fill="#464b5f"/>
    <path d="M209.533 218.467l5.78-5.78c3.001-3.001 7.07-4.686 11.314-4.686h34.745c4.243 0 8.313 1.686 11.314 4.686l5.78 5.78c3.491 3.491 8.399 5.175 13.298 4.563l30.237-3.78c8.946-1.118 16.549-7.12 19.605-15.602C351.068 177.389 355.648 144 355.648 144H132.352s4.58 33.389 14.041 59.647c3.056 8.482 10.659 14.484 19.605 15.602l30.237 3.78c4.899.613 9.807-1.071 13.298-4.562z"
          fill="#e6d79b"/>
</svg>
