<svg viewBox="0 0 1430 1666" xmlns="http://www.w3.org/2000/svg">
    <path fill="#daa520"
          stroke="rgba(0, 0, 0, 1)"
          stroke-width="2"
          d="M419.099 1423.2l-314.486-326.292 172.559 4.349-12.894-493.883-247.841 18.154-1.621-146.282 1231.24-48.319 12.979 154.804-293.988 2.634-29.514 1038.76-104.33-75.834-7.856-290.015s-375.756 5.066-403.156 5.066c0 30.374-1.094 156.854-1.094 156.854zm431.56-325.432l14.473-504.861h-.474l-482.963 12.257-4.025 500.015 472.989-7.411zM1353.55 364.292s-35.134-47.961-84.063-82.779c-156.343-111.251-216.275-125.217-242.556-132.447-29.522-8.123-113.949-6.701-113.949-6.701s54.315 128.244 58.674 127.909c134.762-10.352 298.97 76.445 311.864 84.291 11.201 6.816 118.672 76.982 122.686 80.997 0 0-31.221-103.879-65.866-171.912-45.519-89.388-85.568-143.574-168.881-197.153-60.525-38.925-93.98-45.073-107.323-48.409C1044.562 13.195 992.154 11 971.952 11c83.41 43.761 82.287 86.165 82.287 86.165s30.571-1.2 46.789 2.065c127.339 25.629 206.525 161.874 216.995 185.535 1.773 4.006 35.527 79.527 35.527 79.527z"/>
</svg>
