<svg viewBox="0 0 1275 1235" xmlns="http://www.w3.org/2000/svg">
    <g fill="#daa520" stroke="rgba(0, 0, 0, 1)" stroke-width="2">
        <path d="M10.111 839.2c53.906-1.646 202.956 188.593 229.538 212.416 87.76 78.654 262.38 169.409 390.119 155.099 157.656-17.663 203.54-31.507 242.708-111.117 54.254-110.273 66.016-202.516 44.075-258.795-70.045-179.668-185.047-215.6-260.985-205.697-102.542 13.373-223.778 110.28-223.778 110.28L267.905 521.932s22.312-79.562 301.271-81.294c223.46-1.388 289.861 30.383 289.861 30.383s-16.304-296.368-15.577-296.41c153.015-8.719 423.9 33.574 423.9 33.574s-.001.154 0 .116c.755-21.263-37.368-125.123-37.368-125.123s-225.347-71.135-501.74-69.686C460.249 14.897 83.998 67.61 83.998 67.61S23.534 229.696 24.103 229.589c384.335-72.472 678.518-52.123 678.518-52.123l2.323 130.032s-133.186-8.323-223.457 1.859c-87.161 9.831-307.445 52.976-323.314 173.717-4.29 32.643 58.496 106.757 62.646 112.931 2.45 3.646 219.282 273.355 223.509 275.469 1.172.586 147.312-134.024 241.777-129.559 18.317.866 161.554 15.412 121.342 225.203-35.021 182.703-278.644 203.16-472.614 53.264-177.524-137.187-210.954-276.583-210.954-276.583S9.141 839.229 10.111 839.2z"/>
        <path d="M1116.08 838.659L988.255 702.706l125.298-147.399 118.072 130.158-115.545 153.194z"/>
    </g>
</svg>
