<svg viewBox="0 0 101 87" width="101" height="87" xmlns="http://www.w3.org/2000/svg">
    <defs>
        <style>
            :root {
            --color-indigo: #000;
            --color-outer-line: #daa520;
            --color-outer-bg: rgba(0, 0, 0, 0);
            }

            #_, g[id], [id^="c-"] { display: none }
            #_:target, g[id]:target, [id^="c-"]:target { display: inline }

            #bg { fill: #bdb76b }
            #bg-main { fill: #808000 }
            #bg-treasure { fill: #4682b4 }

            [id^="g-"] > path:nth-child(2),
            [id^="le-"] > path:nth-child(2) { fill: var(--color-outer-line) }

            [id^="c-"],
            [id^="g-"] > path:nth-child(1),
            [id^="le-"] > path:nth-child(1) { fill: var(--color-outer-bg) }

            #center, [id^="tr-"] { fill-rule: evenodd }

            [id^="circle-"],
            [id^="line-"],
            [id^="arc-"],
            .stroked,
            [id^="tr-"] > path:nth-child(2) { stroke-width: 15; fill: none; stroke: var(--color-indigo) }

            #center path,
            #center circle,
            [id^="tr-"] > path:nth-child(3),
            [id^="le-"] > path:nth-child(3),
            [id^="g-"] > path:nth-child(3) { fill: var(--color-indigo) }
        </style>

        <path id="bg" d="M75.012 0l25.004 43.308-25.004 43.309H25.004L0 43.308 25.004 0h50.008z"/>
        <path id="bg-main" d="M75.012 0l25.004 43.308-25.004 43.309H25.004L0 43.308 25.004 0h50.008z"/>
        <path id="bg-treasure" d="M75.012 0l25.004 43.308-25.004 43.309H25.004L0 43.308 25.004 0h50.008z"/>

        <!-- CIRCLE ROADS -->

        <path id="circle-t-l"
              d="M12.502 21.654c3.801 2.195 8.113 3.35 12.502 3.35 13.809 0 25.004-11.195 25.004-25.004"/>
        <path id="circle-t-r"
              d="M87.514 21.654c-3.801 2.195-8.113 3.35-12.502 3.35-13.809 0-25.004-11.195-25.004-25.004"/>
        <path id="circle-b-l"
              d="M12.502 64.962c3.801-2.194 8.113-3.349 12.502-3.349 13.809 0 25.004 11.195 25.004 25.004"/>
        <path id="circle-c-r"
              d="M87.514 64.962c-3.802-2.192-6.96-5.347-9.157-9.146-6.911-11.956-2.823-27.25 9.132-34.162"/>
        <path id="circle-b-r"
              d="M87.514 64.962c-3.801-2.194-8.113-3.349-12.502-3.349-13.809 0-25.004 11.195-25.004 25.004"/>
        <path id="circle-c-l"
              d="M12.502 64.962c3.802-2.192 6.96-5.347 9.157-9.146 6.912-11.956 2.823-27.25-9.132-34.162"/>

        <!-- STRAIGHT LINE ROADS -->

        <path id="line-0" d="M50.008 0v86.617"/>
        <path id="line-60" d="M87.518 21.66l-75.02 43.296"/>
        <path id="line-120" d="M87.514 64.963L12.502 21.654"/>

        <!-- ARC ROADS -->

        <path id="arc-t"
              d="M87.487 21.654c-9.269 5.49-24.46 9.534-37.479 9.534-13.029 0-28.314-4.182-37.506-9.542"/>
        <path id="arc-t-r"
              d="M87.514 64.962c-9.387-5.285-20.481-16.421-26.988-27.698C54.015 25.979 49.998 10.65 50.047.009"/>
        <path id="arc-b-r"
              d="M49.986 86.572c-.114-10.772 3.985-25.947 10.5-37.219 6.519-11.28 17.788-22.422 27.028-27.699"/>
        <path id="arc-b-l"
              d="M12.502 21.642c9.384 5.291 20.472 16.434 26.971 27.714 6.505 11.288 10.514 26.62 10.458 37.261"/>
        <path id="arc-b"
              d="M12.529 64.962c9.265-5.496 24.452-9.553 37.471-9.563 13.029-.011 28.318 4.158 37.514 9.511"/>
        <path id="arc-t-l"
              d="M50.006.024c.12 10.772-3.971 25.95-10.48 37.225-6.513 11.284-17.775 22.432-27.013 27.713"/>
    </defs>

    <!-- LIZARD -->

    <g id="l-0">
        <use href="#bg-main"/>
        <use href="#line-0"/>
        <use href="#arc-t"/>
        <use href="#arc-b"/>
    </g>
    <g id="l-0_">
        <use href="#bg"/>
        <use href="#line-0"/>
        <use href="#arc-t"/>
        <use href="#arc-b"/>
    </g>
    <g id="l-60">
        <use href="#bg-main"/>
        <use href="#line-60"/>
        <use href="#arc-t-r"/>
        <use href="#arc-b-l"/>
    </g>
    <g id="l-60_">
        <use href="#bg"/>
        <use href="#line-60"/>
        <use href="#arc-t-r"/>
        <use href="#arc-b-l"/>
    </g>
    <g id="l-120">
        <use href="#bg-main"/>
        <use href="#line-120"/>
        <use href="#arc-b-r"/>
        <use href="#arc-t-l"/>
    </g>
    <g id="l-120_">
        <use href="#bg"/>
        <use href="#line-120"/>
        <use href="#arc-b-r"/>
        <use href="#arc-t-l"/>
    </g>

    <!-- CROSSROAD -->

    <g id="c">
        <use href="#bg-main"/>
        <use href="#line-0"/>
        <use href="#line-60"/>
        <use href="#line-120"/>
    </g>
    <g id="c_">
        <use href="#bg"/>
        <use href="#line-0"/>
        <use href="#line-60"/>
        <use href="#line-120"/>
    </g>

    <!-- HUMAN -->

    <g id="h-0">
        <use href="#bg-main"/>
        <use href="#arc-b"/>
        <use href="#arc-b-r"/>
        <use href="#circle-t-l"/>
    </g>
    <g id="h-0_">
        <use href="#bg"/>
        <use href="#arc-b"/>
        <use href="#arc-b-r"/>
        <use href="#circle-t-l"/>
    </g>
    <g id="h-60">
        <use href="#bg-main"/>
        <use href="#arc-b"/>
        <use href="#arc-b-l"/>
        <use href="#circle-t-r"/>
    </g>
    <g id="h-60_">
        <use href="#bg"/>
        <use href="#arc-b"/>
        <use href="#arc-b-l"/>
        <use href="#circle-t-r"/>
    </g>
    <g id="h-120">
        <use href="#bg-main"/>
        <use href="#arc-b-l"/>
        <use href="#arc-t-l"/>
        <use href="#circle-c-r"/>
    </g>
    <g id="h-120_">
        <use href="#bg"/>
        <use href="#arc-b-l"/>
        <use href="#arc-t-l"/>
        <use href="#circle-c-r"/>
    </g>
    <g id="h-180">
        <use href="#bg-main"/>
        <use href="#arc-t-l"/>
        <use href="#arc-t"/>
        <use href="#circle-b-r"/>
    </g>
    <g id="h-180_">
        <use href="#bg"/>
        <use href="#arc-t-l"/>
        <use href="#arc-t"/>
        <use href="#circle-b-r"/>
    </g>
    <g id="h-240">
        <use href="#bg-main"/>
        <use href="#arc-t"/>
        <use href="#arc-t-r"/>
        <use href="#circle-b-l"/>
    </g>
    <g id="h-240_">
        <use href="#bg"/>
        <use href="#arc-t"/>
        <use href="#arc-t-r"/>
        <use href="#circle-b-l"/>
    </g>
    <g id="h-300">
        <use href="#bg-main"/>
        <use href="#arc-t-r"/>
        <use href="#arc-b-r"/>
        <use href="#circle-c-l"/>
    </g>
    <g id="h-300_">
        <use href="#bg"/>
        <use href="#arc-t-r"/>
        <use href="#arc-b-r"/>
        <use href="#circle-c-l"/>
    </g>

    <!-- TURTLE -->

    <g id="t-0">
        <use href="#bg-main"/>
        <use href="#line-0"/>
        <use href="#circle-c-l"/>
        <use href="#circle-c-r"/>
    </g>
    <g id="t-0_">
        <use href="#bg"/>
        <use href="#line-0"/>
        <use href="#circle-c-l"/>
        <use href="#circle-c-r"/>
    </g>
    <g id="t-60">
        <use href="#bg-main"/>
        <use href="#line-60"/>
        <use href="#circle-t-l"/>
        <use href="#circle-b-r"/>
    </g>
    <g id="t-60_">
        <use href="#bg"/>
        <use href="#line-60"/>
        <use href="#circle-t-l"/>
        <use href="#circle-b-r"/>
    </g>
    <g id="t-120">
        <use href="#bg-main"/>
        <use href="#line-120"/>
        <use href="#circle-b-l"/>
        <use href="#circle-t-r"/>
    </g>
    <g id="t-120_">
        <use href="#bg"/>
        <use href="#line-120"/>
        <use href="#circle-b-l"/>
        <use href="#circle-t-r"/>
    </g>

    <!-- SHURIKEN -->

    <g id="s-0">
        <use href="#bg-main"/>
        <use href="#circle-t-r"/>
        <use href="#circle-b-r"/>
        <use href="#circle-c-l"/>
    </g>
    <g id="s-0_">
        <use href="#bg"/>
        <use href="#circle-t-r"/>
        <use href="#circle-b-r"/>
        <use href="#circle-c-l"/>
    </g>
    <g id="s-60">
        <use href="#bg-main"/>
        <use href="#circle-t-l"/>
        <use href="#circle-b-l"/>
        <use href="#circle-c-r"/>
    </g>
    <g id="s-60_">
        <use href="#bg"/>
        <use href="#circle-t-l"/>
        <use href="#circle-b-l"/>
        <use href="#circle-c-r"/>
    </g>

    <!-- HEX DEFAULT BG -->

    <use id="_" href="#bg"/>

    <!-- TREASURE -->

    <g id="center">
        <use href="#bg-treasure"/>
        <path d="M87.514 64.951l-8.483-4.896" class="stroked"/>
        <path d="M55.63 46.537c4.184-7.25 13.465-9.739 20.715-5.556 7.249 4.183 9.738 13.465 5.555 20.714-4.183 7.25-13.465 9.739-20.714 5.556-7.249-4.183-9.739-13.465-5.556-20.714zm2.427 6.125l4.178-7.144 8.645 5.057 3.88-6.633 4.236 16.174-16.174 4.236 3.88-6.633-8.645-5.057z"/>
        <path d="M87.504 21.685l-8.48 4.901" class="stroked"/>
        <path d="M55.619 40.097c-4.188-7.246-1.705-16.53 5.542-20.718 7.246-4.188 16.53-1.705 20.718 5.542 4.188 7.246 1.705 16.53-5.542 20.718-7.246 4.188-16.53 1.705-20.718-5.542zm6.518.96l-4.099-7.189 8.701-4.96-3.806-6.676 16.126 4.415-4.415 16.126-3.806-6.676-8.701 4.96z"/>
        <path d="M50.054 0l.006 9.795" class="stroked"/>
        <path d="M50.065 36.819c-8.37.006-15.169-6.785-15.175-15.154-.006-8.37 6.785-15.17 15.154-15.176 8.37-.005 15.17 6.785 15.176 15.155.005 8.37-6.785 15.169-15.155 15.175zm4.089-5.165l-8.275-.044.052-10.015-7.685-.04L50.13 9.794l11.761 11.884-7.685-.04-.052 10.016z"/>
        <path d="M12.569 21.652l8.481 4.899" class="stroked"/>
        <path d="M44.444 40.08c-4.186 7.248-13.469 9.733-20.716 5.547-7.248-4.187-9.733-13.47-5.547-20.717 4.187-7.248 13.469-9.733 20.717-5.547 7.247 4.187 9.733 13.469 5.546 20.717zm-2.423-6.126l-4.182 7.141-8.642-5.06-3.883 6.631-4.229-16.175 16.176-4.229-3.883 6.631 8.643 5.061z"/>
        <path d="M49.975 86.617l.009-9.795" class="stroked"/>
        <path d="M50.021 49.798c8.37.007 15.159 6.808 15.152 15.178-.007 8.369-6.808 15.159-15.178 15.151-8.37-.007-15.159-6.808-15.152-15.178.008-8.369 6.809-15.159 15.178-15.151zm-4.097 5.159l8.276.056-.068 10.015 7.684.052-11.902 11.742L38.172 64.92l7.684.052.068-10.015z"/>
        <path d="M12.502 64.918l8.485-4.892" class="stroked"/>
        <path d="M44.406 46.538c4.18 7.251 1.688 16.532-5.563 20.713-7.251 4.18-16.531 1.688-20.712-5.563-4.181-7.25-1.689-16.531 5.562-20.712 7.251-4.181 16.532-1.688 20.713 5.562zm-6.517-.966l4.091 7.193-8.705 4.952 3.799 6.679-16.122-4.431 4.432-16.122 3.799 6.68 8.706-4.951z"/>
        <circle cx="50" cy="43" r="23" />
    </g>
    <g id="tr-b">
        <use href="#bg-treasure"/>
        <path d="M12.529 64.962c9.265-5.496 15.836-11.188 15.839-21.654 0-11.951 9.703-21.654 21.654-21.654s21.654 9.703 21.654 21.654c.079 12.321 6.642 16.249 15.838 21.602M50.008 86.617v-9.795"/>
        <path d="M50.022 49.798c8.369 0 15.165 6.795 15.165 15.164 0 8.37-6.796 15.165-15.165 15.165-8.37 0-15.165-6.795-15.165-15.165 0-8.369 6.795-15.164 15.165-15.164zm-4.093 5.162l8.276.049-.059 10.015 7.684.046-11.892 11.752L38.186 64.93l7.684.046.059-10.016z"/>
    </g>
    <g id="tr-b-r">
        <use href="#bg-treasure"/>
        <path d="M50.043 86.605c-.132-10.772-1.778-19.308-10.842-24.54-10.352-5.972-13.908-19.225-7.936-29.577 5.972-10.352 19.225-13.908 29.578-7.936 10.711 6.088 17.393 2.366 26.625-2.925M87.514 64.951l-8.483-4.896"/>
        <path d="M55.63 46.537c4.184-7.25 13.465-9.739 20.715-5.556 7.249 4.183 9.738 13.465 5.555 20.714-4.183 7.25-13.465 9.739-20.714 5.556-7.249-4.183-9.739-13.465-5.556-20.714zm2.427 6.125l4.178-7.144 8.645 5.057 3.88-6.633 4.236 16.174-16.174 4.236 3.88-6.633-8.645-5.057z"/>
    </g>
    <g id="tr-b-l">
        <use href="#bg-treasure"/>
        <path d="M12.533 21.648c9.39 5.28 17.603 8.129 26.671 2.902 10.353-5.97 23.605-2.413 29.576 7.94s2.413 23.606-7.94 29.577c-10.633 6.224-10.757 13.871-10.8 24.511M12.502 64.918l8.485-4.892"/>
        <path d="M44.406 46.538c4.18 7.251 1.688 16.532-5.563 20.713-7.251 4.18-16.531 1.688-20.712-5.563-4.181-7.25-1.689-16.531 5.562-20.712 7.251-4.181 16.532-1.688 20.713 5.562zm-6.517-.966l4.091 7.193-8.705 4.952 3.799 6.679-16.122-4.431 4.432-16.122 3.799 6.68 8.706-4.951z"/>
    </g>
    <g id="tr-t">
        <use href="#bg-treasure"/>
        <path d="M87.547 21.712c-9.273 5.482-15.853 11.164-15.871 21.629-.018 11.952-9.736 21.64-21.687 21.621-11.952-.018-21.64-9.735-21.621-21.687-.061-12.32-6.618-16.258-15.806-21.625M50.054 0l.006 9.795"/>
        <path d="M50.065 36.819c-8.37.006-15.169-6.785-15.175-15.154-.006-8.37 6.785-15.17 15.154-15.176 8.37-.005 15.17 6.785 15.176 15.155.005 8.37-6.785 15.169-15.155 15.175zm4.089-5.165l-8.275-.044.052-10.015-7.685-.04L50.13 9.794l11.761 11.884-7.685-.04-.052 10.016z"/>
    </g>
    <g id="tr-t-l">
        <use href="#bg-treasure"/>
        <path d="M50.014.012c.128 10.772 1.772 19.309 10.834 24.543 10.351 5.976 13.902 19.23 7.927 29.58-5.975 10.35-19.23 13.902-29.58 7.927-10.71-6.091-17.393-2.372-26.626 2.916M12.569 21.652l8.481 4.899"/>
        <path d="M44.444 40.08c-4.186 7.248-13.469 9.733-20.716 5.547-7.248-4.187-9.733-13.47-5.547-20.717 4.187-7.248 13.469-9.733 20.717-5.547 7.247 4.187 9.733 13.469 5.546 20.717zm-2.423-6.126l-4.182 7.141-8.642-5.06-3.883 6.631-4.229-16.175 16.176-4.229-3.883 6.631 8.643 5.061z"/>
    </g>
    <g id="tr-t-r">
        <use href="#bg-treasure"/>
        <path d="M87.504 64.98c-9.388-5.283-17.601-8.134-26.67-2.91-10.354 5.967-23.606 2.406-29.574-7.949-5.967-10.355-2.406-23.606 7.949-29.574C49.844 18.326 49.97 10.679 50.016.038M87.504 21.685l-8.48 4.901"/>
        <path d="M55.619 40.097c-4.188-7.246-1.705-16.53 5.542-20.718 7.246-4.188 16.53-1.705 20.718 5.542 4.188 7.246 1.705 16.53-5.542 20.718-7.246 4.188-16.53 1.705-20.718-5.542zm6.518.96l-4.099-7.189 8.701-4.96-3.806-6.676 16.126 4.415-4.415 16.126-3.806-6.676-8.701 4.96z"/>
    </g>

    <!-- CORNER -->

    <path id="c-r" d="M50.00797 43.3081l-25.004 43.309-25.004-43.309 25.004-43.308 25.004 43.308z"/>
    <path id="c-l"
          d="M74.99992273-.00016055l25.004 43.3081782L74.999246 86.61660675l-25.004-43.3081782L74.99992273-.00016055z"/>
    <path id="c-t-l" d="M50.00797 43.3081h50.008l-25.004 43.309h-50.008l25.004-43.309z"/>
    <path id="c-t-r" d="M-.00003 43.3081h50.008l25.004 43.309h-50.008l-25.004-43.309z"/>
    <path id="c-b-l" d="M75.01197.0001l25.004 43.308h-50.008L25.00397.0001h50.008z"/>
    <path id="c-b-r" d="M25.0039-.0001h50.008l-25.004 43.309H-.0001l25.004-43.309z"/>

    <!-- DECORATOR LINE EMPTY -->

    <g id="le-t">
        <path d="M.00019 43.308h100.016l-17.786 30.806h-64.444L.00019 43.308z"/>
        <path d="M25.004 86.617l-7.218-12.503H82.23l-7.218 12.503H25.004zm25.004-12.503l-9.639 12.443h19.29l-9.651-12.443z"/>
        <path d="M50.008 74.11410498l-9.639 12.44237473h19.29l-9.651-12.44237473z"/>
    </g>
    <g id="le-b">
        <path d="M100.01578 43.3091H-.00022l17.786-30.806h64.444l17.786 30.806z"/>
        <path d="M75.01197.0001l7.218 12.503h-64.444l7.218-12.503h50.008zm-25.004 12.503l9.639-12.443h-19.29l9.651 12.443z"/>
        <path d="M50.00797 12.50299502l9.639-12.44237473h-19.29l9.651 12.44237473z"/>
    </g>
    <g id="le-l-t">
        <path d="M25.00481933-.00002002l50.008 86.6163564-35.57176615-.00012065-32.222-55.8101151L25.00481933-.00002002z"/>
        <path d="M.0000476 43.30840453l7.21891058-12.50246845 32.222 55.8101151-14.43691058.00053155-25.004-43.3081782zm23.32991058 15.4025891L7.7345091 56.58487866l9.645 16.70562225 5.95044908-14.57950728z"/>
        <path d="M23.32986726 58.71104612L7.7349597 56.58461852l9.645 16.70562224 5.94990757-14.57919464z"/>
    </g>
    <g id="le-l-b">
        <path d="M74.99989933.00087998l-50.008 86.6163564L7.20613318 55.81111573l32.222-55.8101151L74.99989933.00087998z"/>
        <path d="M24.9913176.00030453l14.43691058.00053155-32.222 55.8101151L-.0126824 43.30848273l25.004-43.3081782zm-1.67408942 27.9055891L17.3607791 13.33677866l-9.645 16.70562225 15.60144908-2.13650728z"/>
        <path d="M23.31713726 27.90584114L17.3612297 13.3370388l-9.645 16.70562225 15.60090757-2.1368199z"/>
    </g>
    <g id="le-r-b">
        <path d="M75.01598067 86.61662002l-50.008-86.6163564 35.57176615.00012065 32.222 55.8101151-17.78576615 30.80612065z"/>
        <path d="M100.0207524 43.30819547l-7.21891058 12.50246845-32.222-55.8101151L75.0167524.00001727l25.004 43.3081782zm-23.32991058-15.4025891l15.59544908 2.12611497-9.645-16.70562225-5.95044908 14.57950728z"/>
        <path d="M76.69093274 27.90555388l15.59490757 2.1264276-9.645-16.70562224-5.94990757 14.57919464z"/>
    </g>
    <g id="le-r-t">
        <path d="M25.00820067 86.61642002l50.008-86.6163564 17.78576615 30.80612065-32.222 55.8101151-35.57176615.00012065z"/>
        <path d="M75.0167824 86.61699547l-14.43691058-.00053155 32.222-55.8101151 7.21891058 12.50246845-25.004 43.3081782zm1.67408942-27.9055891l5.95644908 14.56911497 9.645-16.70562225-15.60144908 2.13650728z"/>
        <path d="M76.69096274 58.71145886L82.6468703 73.2802612l9.645-16.70562225-15.60090757 2.1368199z"/>
    </g>

    <!-- DECORATOR GATEWAY -->

    <g id="g-l">
        <path d="M25.00399497.00031727l37.44620038-.0287367-37.44638968 86.645004-25.0038107-43.3080891 25.004-43.3081782zm37.44620038-.0287367l6.31061032 10.85569215 17.81426615 30.75675722-25.9995 45.03243398-35.57176615.00012065 37.44638968-86.645004z"/>
        <path d="M62.45019535-.02841943l12.56161032.0286476 25.00467673 43.3085891-25.004 43.3081782-14.43691058-.00053155 25.9995-45.03243398L62.45019535-.02841943zm14.23637647 58.7398258l5.95644908 14.56911497 9.645-16.70562225-15.60144908 2.13650728zm1.45923115-31.7154409l13.4705586 1.83630137-8.33087472-14.42848825-5.13968388 12.59218688z"/>
        <path d="M76.68666274 58.71145886L82.6425703 73.2802612l9.645-16.70562225-15.60090757 2.1368199zM78.14651333 26.99549953l13.46958664 1.83658058L83.2855887 14.4031995l-5.13907537 12.59230004z"/>
    </g>
    <g id="g-t-l">
        <path d="M75.012 0L93.76 32.415 0 43.308 25.004 0h50.008zM93.76 32.415l-6.246 10.893-17.729 30.806H17.786L0 43.308l93.76-10.893z"/>
        <path d="M93.76 32.415l6.256 10.893-25.004 43.309H25.004l-7.218-12.503h51.999L93.76 32.415zM50.008 74.114l-9.639 12.443h19.29l-9.651-12.443zM78.204 59.52l5.145 12.584 8.33-14.429-13.475 1.845z"/>
        <path d="M50.008 74.11410498l-9.639 12.44237473h19.29l-9.651-12.44237473zM78.2047587 59.52038221l5.14427221 12.58329787 8.33052153-14.42888142-13.47479374 1.84558355z"/>
    </g>
    <g id="g-t-r">
        <path d="M100.01620503 43.30808273l-18.69820038 32.4437367-56.31361032-75.752004 50.0078107.0000891 25.004 43.3081782zm-18.69820038 32.4437367l-12.55661032.03730785-35.54326615.04924278-25.9995-45.03243398L25.00439433-.00018457l56.31361032 75.752004z"/>
        <path d="M81.31800465 75.75181943l-6.30561032 10.8643524-50.00867673.0004109-25.004-43.3081782 7.21891058-12.50246845 25.9995 45.03243398 48.09987647-.08655063zm-57.98837647-17.0408258L7.7341791 56.58487866l9.645 16.70562225 5.95044908-14.57950728zm26.73676885 17.1214409l-8.3255586 10.74769863 16.66087472-.00051175-8.33531612-10.74718688z"/>
        <path d="M23.32953726 58.71104612L7.7346297 56.58461852l9.645 16.70562224 5.94990757-14.57919464zM50.06644537 75.83328269l-8.32531443 10.74671728 16.6610328-8e-7-8.33571837-10.74671648z"/>
    </g>
    <g id="g-r">
        <path d="M75.01280503 86.61648273l-37.44620038.0287367L75.01299433.00021543l25.0038107 43.3080891-25.004 43.3081782zm-37.44620038.0287367l-6.31061032-10.85569215-17.81426615-30.75675722 25.9995-45.03243398L75.01299433.00021543l-37.44638968 86.645004z"/>
        <path d="M37.56660465 86.64521943l-12.56161032-.0286476L.0003176 43.30798273l25.004-43.3081782 14.43691058.00053155-25.9995 45.03243398 24.12487647 41.61244937zm-14.23637647-58.7398258L17.3737791 13.33627866l-9.645 16.70562225 15.60144908-2.13650728zm-1.45923115 31.7154409l-13.4705586-1.83630137 8.33087472 14.42848825 5.13968388-12.59218688z"/>
        <path d="M23.33013726 27.90534114L17.3742297 13.3365388l-9.645 16.70562225 15.60090757-2.1368199zM21.87028667 59.62130047L8.40070003 57.7847199 16.7312113 72.2136005l5.13907537-12.59230004z"/>
    </g>
    <g id="g-b-r">
        <path d="M25.00397 86.6171l-18.748-32.415 93.76-10.893-25.004 43.308h-50.008zm-18.748-32.415l6.246-10.893 17.729-30.806h51.999l17.786 30.806-93.76 10.893z"/>
        <path d="M6.25597 54.2021l-6.256-10.893 25.004-43.309h50.008l7.218 12.503h-51.999l-23.975 41.699zm43.752-41.699l9.639-12.443h-19.29l9.651 12.443zm-28.196 14.594l-5.145-12.584-8.33 14.429 13.475-1.845z"/>
        <path d="M50.00797 12.50299502l9.639-12.44237473h-19.29l9.651 12.44237473zM21.8112113 27.09671779L16.6669391 14.51341992 8.33641756 28.94230134l13.47479374-1.84558355z"/>
    </g>
    <g id="g-b-l">
        <path d="M.00016497 43.30851727l18.69820038-32.4437367 56.31361032 75.752004-50.0078107-.0000891-25.004-43.3081782zm18.69820038-32.4437367l12.55661032-.03730785 35.54326615-.04924278 25.9995 45.03243398-17.78576615 30.80612065-56.31361032-75.752004z"/>
        <path d="M18.69836535 10.86478057L25.00397567.00042817 75.0126524.00001727l25.004 43.3081782-7.21891058 12.50246845-25.9995-45.03243398-48.09987647.08655063zm57.98837647 17.0408258l15.59544908 2.12611497-9.645-16.70562225-5.95044908 14.57950728zm-26.73676885-17.1214409L58.27553157.03646684 41.61465685.0369786l8.33531612 10.74718688z"/>
        <path d="M76.68683274 27.90555388l15.59490757 2.1264276-9.645-16.70562224-5.94990757 14.57919464zM49.94992463 10.78331731L58.27523906.03660003l-16.6610328 8e-7 8.33571837 10.74671648z"/>
    </g>
</svg>
