<svg viewBox="0 0 101 87" width="101" height="87" xmlns="http://www.w3.org/2000/svg">
    <defs>
        <path id="hex-main-bg"
              d="M75.012 0l25.004 43.308-25.004 43.309H25.004L0 43.308 25.004 0h50.008z"
              fill="olive"
        />
        <path id="hex-treasure-bg"
              d="M75.012 0l25.004 43.308-25.004 43.309H25.004L0 43.308 25.004 0h50.008z"
              fill="steelblue"
        />
        <path id="hex-default-bg"
              d="M75.012 0l25.004 43.308-25.004 43.309H25.004L0 43.308 25.004 0h50.008z"
              fill="darkkhaki"
        />
        <path id="hex-circle-top-left"
              d="M12.502 21.654c3.801 2.195 8.113 3.35 12.502 3.35 13.809 0 25.004-11.195 25.004-25.004"
              fill="none"
              stroke="#000"
              stroke-width="15"
        />
        <path id="hex-circle-top-right"
              d="M87.514 21.654c-3.801 2.195-8.113 3.35-12.502 3.35-13.809 0-25.004-11.195-25.004-25.004"
              fill="none"
              stroke="#000"
              stroke-width="15"
        />
        <path id="hex-circle-bottom-left"
              d="M12.502 64.962c3.801-2.194 8.113-3.349 12.502-3.349 13.809 0 25.004 11.195 25.004 25.004"
              fill="none"
              stroke="#000"
              stroke-width="15"
        />
        <path id="hex-circle-center-right"
              d="M87.514 64.962c-3.802-2.192-6.96-5.347-9.157-9.146-6.911-11.956-2.823-27.25 9.132-34.162"
              fill="none"
              stroke="#000"
              stroke-width="15"
        />
        <path id="hex-circle-bottom-right"
              d="M87.514 64.962c-3.801-2.194-8.113-3.349-12.502-3.349-13.809 0-25.004 11.195-25.004 25.004"
              fill="none"
              stroke="#000"
              stroke-width="15"
        />
        <path id="hex-circle-center-left"
              d="M12.502 64.962c3.802-2.192 6.96-5.347 9.157-9.146 6.912-11.956 2.823-27.25-9.132-34.162"
              fill="none"
              stroke="#000"
              stroke-width="15"
        />
        <path id="hex-line-0deg"
              d="M50.008 0v86.617"
              fill="none"
              stroke="#000"
              stroke-width="15"
        />
        <path id="hex-line-60deg"
              d="M87.518 21.66l-75.02 43.296"
              fill="none"
              stroke="#000"
              stroke-width="15"
        />
        <path id="hex-line-120deg"
              d="M87.514 64.963L12.502 21.654"
              fill="none"
              stroke="#000"
              stroke-width="15"
        />
        <path id="hex-arc-top"
              d="M87.487 21.654c-9.269 5.49-24.46 9.534-37.479 9.534-13.029 0-28.314-4.182-37.506-9.542"
              fill="none"
              stroke="#000"
              stroke-width="15"
        />
        <path id="hex-arc-top-right"
              d="M87.514 64.962c-9.387-5.285-20.481-16.421-26.988-27.698C54.015 25.979 49.998 10.65 50.047.009"
              fill="none"
              stroke="#000"
              stroke-width="15"
        />
        <path id="hex-arc-bottom-right"
              d="M49.986 86.572c-.114-10.772 3.985-25.947 10.5-37.219 6.519-11.28 17.788-22.422 27.028-27.699"
              fill="none"
              stroke="#000"
              stroke-width="15"
        />
        <path id="hex-arc-bottom-left"
              d="M12.502 21.642c9.384 5.291 20.472 16.434 26.971 27.714 6.505 11.288 10.514 26.62 10.458 37.261"
              fill="none"
              stroke="#000"
              stroke-width="15"
        />
        <path id="hex-arc-bottom"
              d="M12.529 64.962c9.265-5.496 24.452-9.553 37.471-9.563 13.029-.011 28.318 4.158 37.514 9.511"
              fill="none"
              stroke="#000"
              stroke-width="15"
        />
        <path id="hex-arc-top-left"
              d="M50.006.024c.12 10.772-3.971 25.95-10.48 37.225-6.513 11.284-17.775 22.432-27.013 27.713"
              fill="none"
              stroke="#000"
              stroke-width="15"
        />
        <g id="hex-treasure-bottom" fill-rule="evenodd">
            <path d="M12.529 64.962c9.265-5.496 15.836-11.188 15.839-21.654 0-11.951 9.703-21.654 21.654-21.654s21.654 9.703 21.654 21.654c.079 12.321 6.642 16.249 15.838 21.602M50.008 86.617v-9.795"
                  fill="none"
                  stroke="#000"
                  stroke-width="15"
            />
            <path d="M50.022 49.798c8.369 0 15.165 6.795 15.165 15.164 0 8.37-6.796 15.165-15.165 15.165-8.37 0-15.165-6.795-15.165-15.165 0-8.369 6.795-15.164 15.165-15.164zm-4.093 5.162l8.276.049-.059 10.015 7.684.046-11.892 11.752L38.186 64.93l7.684.046.059-10.016z"
                  stroke="#000"
            />
        </g>
        <g id="hex-treasure-bottom-left" fill-rule="evenodd">
            <path d="M12.533 21.648c9.39 5.28 17.603 8.129 26.671 2.902 10.353-5.97 23.605-2.413 29.576 7.94s2.413 23.606-7.94 29.577c-10.633 6.224-10.757 13.871-10.8 24.511M12.502 64.918l8.485-4.892"
                  fill="none"
                  stroke="#000"
                  stroke-width="15"
            />
            <path d="M44.406 46.538c4.18 7.251 1.688 16.532-5.563 20.713-7.251 4.18-16.531 1.688-20.712-5.563-4.181-7.25-1.689-16.531 5.562-20.712 7.251-4.181 16.532-1.688 20.713 5.562zm-6.517-.966l4.091 7.193-8.705 4.952 3.799 6.679-16.122-4.431 4.432-16.122 3.799 6.68 8.706-4.951z"
                  stroke="#000"
            />
        </g>
        <g id="hex-treasure-top-left" fill-rule="evenodd">
            <path d="M50.014.012c.128 10.772 1.772 19.309 10.834 24.543 10.351 5.976 13.902 19.23 7.927 29.58-5.975 10.35-19.23 13.902-29.58 7.927-10.71-6.091-17.393-2.372-26.626 2.916M12.569 21.652l8.481 4.899"
                  fill="none"
                  stroke="#000"
                  stroke-width="15"
            />
            <path d="M44.444 40.08c-4.186 7.248-13.469 9.733-20.716 5.547-7.248-4.187-9.733-13.47-5.547-20.717 4.187-7.248 13.469-9.733 20.717-5.547 7.247 4.187 9.733 13.469 5.546 20.717zm-2.423-6.126l-4.182 7.141-8.642-5.06-3.883 6.631-4.229-16.175 16.176-4.229-3.883 6.631 8.643 5.061z"
                  stroke="#000"
            />
        </g>
        <g id="hex-treasure-top" fill-rule="evenodd">
            <path d="M87.547 21.712c-9.273 5.482-15.853 11.164-15.871 21.629-.018 11.952-9.736 21.64-21.687 21.621-11.952-.018-21.64-9.735-21.621-21.687-.061-12.32-6.618-16.258-15.806-21.625M50.054 0l.006 9.795"
                  fill="none"
                  stroke="#000"
                  stroke-width="15"
            />
            <path d="M50.065 36.819c-8.37.006-15.169-6.785-15.175-15.154-.006-8.37 6.785-15.17 15.154-15.176 8.37-.005 15.17 6.785 15.176 15.155.005 8.37-6.785 15.169-15.155 15.175zm4.089-5.165l-8.275-.044.052-10.015-7.685-.04L50.13 9.794l11.761 11.884-7.685-.04-.052 10.016z"
                  stroke="#000"
            />
        </g>
        <g id="hex-treasure-top-right" fill-rule="evenodd">
            <path d="M87.504 64.98c-9.388-5.283-17.601-8.134-26.67-2.91-10.354 5.967-23.606 2.406-29.574-7.949-5.967-10.355-2.406-23.606 7.949-29.574C49.844 18.326 49.97 10.679 50.016.038M87.504 21.685l-8.48 4.901"
                  fill="none"
                  stroke="#000"
                  stroke-width="15"
            />
            <path d="M55.619 40.097c-4.188-7.246-1.705-16.53 5.542-20.718 7.246-4.188 16.53-1.705 20.718 5.542 4.188 7.246 1.705 16.53-5.542 20.718-7.246 4.188-16.53 1.705-20.718-5.542zm6.518.96l-4.099-7.189 8.701-4.96-3.806-6.676 16.126 4.415-4.415 16.126-3.806-6.676-8.701 4.96z"
                  stroke="#000"
            />
        </g>
        <g id="hex-treasure-bottom-right" fill-rule="evenodd">
            <path d="M50.043 86.605c-.132-10.772-1.778-19.308-10.842-24.54-10.352-5.972-13.908-19.225-7.936-29.577 5.972-10.352 19.225-13.908 29.578-7.936 10.711 6.088 17.393 2.366 26.625-2.925M87.514 64.951l-8.483-4.896"
                  fill="none"
                  stroke="#000"
                  stroke-width="15"
            />
            <path d="M55.63 46.537c4.184-7.25 13.465-9.739 20.715-5.556 7.249 4.183 9.738 13.465 5.555 20.714-4.183 7.25-13.465 9.739-20.714 5.556-7.249-4.183-9.739-13.465-5.556-20.714zm2.427 6.125l4.178-7.144 8.645 5.057 3.88-6.633 4.236 16.174-16.174 4.236 3.88-6.633-8.645-5.057z"
                  stroke="#000"
            />
        </g>
        <g id="hex-center" stroke="#000" fill-rule="evenodd">
            <path d="M87.514 64.951l-8.483-4.896" fill="none" stroke-width="15"/>
            <path d="M55.63 46.537c4.184-7.25 13.465-9.739 20.715-5.556 7.249 4.183 9.738 13.465 5.555 20.714-4.183 7.25-13.465 9.739-20.714 5.556-7.249-4.183-9.739-13.465-5.556-20.714zm2.427 6.125l4.178-7.144 8.645 5.057 3.88-6.633 4.236 16.174-16.174 4.236 3.88-6.633-8.645-5.057z"/>
            <path d="M87.504 21.685l-8.48 4.901" fill="none" stroke-width="15"/>
            <path d="M55.619 40.097c-4.188-7.246-1.705-16.53 5.542-20.718 7.246-4.188 16.53-1.705 20.718 5.542 4.188 7.246 1.705 16.53-5.542 20.718-7.246 4.188-16.53 1.705-20.718-5.542zm6.518.96l-4.099-7.189 8.701-4.96-3.806-6.676 16.126 4.415-4.415 16.126-3.806-6.676-8.701 4.96z"/>
            <path d="M50.054 0l.006 9.795" fill="none" stroke-width="15"/>
            <path d="M50.065 36.819c-8.37.006-15.169-6.785-15.175-15.154-.006-8.37 6.785-15.17 15.154-15.176 8.37-.005 15.17 6.785 15.176 15.155.005 8.37-6.785 15.169-15.155 15.175zm4.089-5.165l-8.275-.044.052-10.015-7.685-.04L50.13 9.794l11.761 11.884-7.685-.04-.052 10.016z"/>
            <path d="M12.569 21.652l8.481 4.899" fill="none" stroke-width="15"/>
            <path d="M44.444 40.08c-4.186 7.248-13.469 9.733-20.716 5.547-7.248-4.187-9.733-13.47-5.547-20.717 4.187-7.248 13.469-9.733 20.717-5.547 7.247 4.187 9.733 13.469 5.546 20.717zm-2.423-6.126l-4.182 7.141-8.642-5.06-3.883 6.631-4.229-16.175 16.176-4.229-3.883 6.631 8.643 5.061z"/>
            <path d="M49.975 86.617l.009-9.795" fill="none" stroke-width="15"/>
            <path d="M50.021 49.798c8.37.007 15.159 6.808 15.152 15.178-.007 8.369-6.808 15.159-15.178 15.151-8.37-.007-15.159-6.808-15.152-15.178.008-8.369 6.809-15.159 15.178-15.151zm-4.097 5.159l8.276.056-.068 10.015 7.684.052-11.902 11.742L38.172 64.92l7.684.052.068-10.015z"/>
            <path d="M12.502 64.918l8.485-4.892" fill="none" stroke-width="15"/>
            <path d="M44.406 46.538c4.18 7.251 1.688 16.532-5.563 20.713-7.251 4.18-16.531 1.688-20.712-5.563-4.181-7.25-1.689-16.531 5.562-20.712 7.251-4.181 16.532-1.688 20.713 5.562zm-6.517-.966l4.091 7.193-8.705 4.952 3.799 6.679-16.122-4.431 4.432-16.122 3.799 6.68 8.706-4.951z"/>
            <circle cx="50.008" cy="43.308" r="24.077" stroke-width=".9"/>
        </g>
    </defs>
</svg>
