<svg xmlns="http://www.w3.org/2000/svg" width="100.01641" height="86.616753" viewBox="0 0 26.462674 22.91735">
    <defs>
        <path id="hexagon-default-bg"
              d="M19.8470053 0l6.61567 11.4586744-6.615668 11.458674-13.231338.000001L0 11.4586754 6.6156682 6e-7z"
              fill="olive"
        />
        <path id="hexagon-treasure-bg"
              d="M19.8470053 0l6.61567 11.4586744-6.615668 11.458674-13.231338.000001L0 11.4586754 6.6156682 6e-7z"
              fill="#99f"
        />
        <path id="hexagon-circle-top-left"
              d="M3.30780836 5.729366c1.00570901.58061357 2.146532.88627082 3.30780835.88625071C10.26930904 6.61558814 13.23120485 3.65369232 13.23123342 0"
              fill="none"
              stroke="#000"
              stroke-width="3.9687000238122"
        />

        <path id="hexagon-circle-bottom-left"
              d="M87.51415867 21.65426647c-3.80126396 2.1944514-8.11290853 3.34962078-12.50207592 3.34962078C61.20296682 25.00388725 50.0084601 13.80911594 50.0081955 0"
              fill="none"
              stroke="#000"
              stroke-width="14.999040199999998"
        />

        <path id="huji" d="M12.502 21.654c3.801 2.195 8.113 3.35 12.502 3.35 13.809 0 25.004-11.195 25.004-25.004" fill="none"
              stroke="#000" stroke-width="15"/>

        <!--
        <use id="hexagon-circle-bottom-left"
             href="#hexagon-circle-top-left"
             transform="scale(1 -1)"
             style="transform-origin: 50% 50%;"
        />
        <use id="hexagon-circle-bottom-right"
             href="#hexagon-circle-top-left"
             transform="scale(-1 -1)"
             style="transform-origin: 50% 50%;"
        />
        <use id="hexagon-circle-top-right"
             href="#hexagon-circle-top-left"
             transform="scale(-1 1)"
             style="transform-origin: 50% 50%;"
        />
        <use id="hexagon-circle-center-right"
             href="#hexagon-circle-top-left"
             transform="rotate(120)"
             style="transform-origin: 50% 50%;"
        />
        <use id="hexagon-circle-center-left"
             href="#hexagon-circle-top-left"
             transform="rotate(-60)"
             style="transform-origin: 50% 50%;"
        />
        -->

        <path id="hexagon-line-vertical"
              d="M13.2313383-.000001v22.9173494"
              fill="none"
              stroke="#000"
              stroke-width="3.96874997"
        />
        <use id="hexagon-line-right"
             href="#hexagon-line-vertical"
             transform="rotate(60)"
             style="transform-origin: 50% 50%;"
        />
        <use id="hexagon-line-left"
             href="#hexagon-line-vertical"
             transform="rotate(-60)"
             style="transform-origin: 50% 50%;"
        />
    </defs>
</svg>
